<svg xmlns="http://www.w3.org/2000/svg" width="1200" height="850" viewBox="0 0 1200 850">
  <defs>
    <linearGradient id="bg" x1="0" y1="0" x2="1" y2="1">
      <stop offset="0" stop-color="#ffffff"/>
      <stop offset="1" stop-color="#faf7fb"/>
    </linearGradient>
    <linearGradient id="accent" x1="0" y1="0" x2="1" y2="0">
      <stop offset="0" stop-color="#A06868"/>
      <stop offset="1" stop-color="#BD8A97"/>
    </linearGradient>
  </defs>
  <rect x="0" y="0" width="1200" height="850" fill="url(#bg)"/>
  <rect x="60" y="60" width="1080" height="730" rx="28" fill="#fff" stroke="#E6E0EE" stroke-width="4"/>
  <rect x="60" y="60" width="1080" height="10" fill="url(#accent)"/>
  <text x="600" y="185" text-anchor="middle" font-family="Poppins, Arial, sans-serif" font-size="44" font-weight="700" fill="#55466B">
    Certificado
  </text>
  <text x="600" y="260" text-anchor="middle" font-family="Inter, Arial, sans-serif" font-size="26" font-weight="600" fill="#A06868">
    Fundamentos de la IA
  </text>
  <text x="600" y="330" text-anchor="middle" font-family="Inter, Arial, sans-serif" font-size="18" fill="#6F6480">
    Reemplazá este archivo por la imagen real del certificado.
  </text>
  <rect x="200" y="410" width="800" height="8" rx="4" fill="#EFEAF5"/>
  <rect x="260" y="450" width="680" height="8" rx="4" fill="#EFEAF5"/>
  <rect x="230" y="490" width="740" height="8" rx="4" fill="#EFEAF5"/>
  <circle cx="240" cy="690" r="54" fill="rgba(160,104,104,0.12)"/>
  <path d="M240 655c18 0 32 14 32 32s-14 32-32 32-32-14-32-32 14-32 32-32zm0 10c-12 0-22 10-22 22s10 22 22 22 22-10 22-22-10-22-22-22z" fill="#A06868"/>
  <text x="320" y="700" font-family="Inter, Arial, sans-serif" font-size="16" fill="#6F6480">assets/certificados/fundamentos-ia.svg</text>
</svg>
